<svg width="17" height="22" viewBox="0 0 17 22" fill="none" xmlns="http://www.w3.org/2000/svg">
<path d="M14.75 7.33329H13.7083V5.24996C13.7083 2.37496 11.375 0.041626 8.5 0.041626C5.625 0.041626 3.29167 2.37496 3.29167 5.24996V7.33329H2.25001C1.10417 7.33329 0.166672 8.2708 0.166672 9.41663V19.8333C0.166672 20.9791 1.10417 21.9166 2.25001 21.9166H14.75C15.8958 21.9166 16.8333 20.9791 16.8333 19.8333V9.41663C16.8333 8.2708 15.8958 7.33329 14.75 7.33329ZM8.5 16.7083C7.35417 16.7083 6.41667 15.7708 6.41667 14.625C6.41667 13.4791 7.35417 12.5416 8.5 12.5416C9.64584 12.5416 10.5833 13.4791 10.5833 14.625C10.5833 15.7708 9.64584 16.7083 8.5 16.7083ZM11.7292 7.33329H5.27084V5.24996C5.27084 3.46871 6.71875 2.02079 8.5 2.02079C10.2813 2.02079 11.7292 3.46871 11.7292 5.24996V7.33329Z" fill="#D6F1FD"/>
</svg>
