<svg width="312" height="153" viewBox="0 0 312 153" fill="none" xmlns="http://www.w3.org/2000/svg">
<g clip-path="url(#clip0_24_128)">
<path d="M243.75 45.3553C238.966 45.3534 234.196 45.7345 229.515 46.4948C214.217 10.9038 164.537 -8.34897 118.551 3.49078C86.0499 11.8593 62.8107 34.0985 59.0362 60.4474H58.5C26.1909 60.4474 0 80.718 0 105.724C0 130.729 26.1909 151 58.5 151H243.75C281.444 151 312 127.351 312 98.1777C312 69.0046 281.444 45.3553 243.75 45.3553ZM243.75 135.908H58.5C36.961 135.908 19.5 122.394 19.5 105.724C19.5 89.0535 36.961 75.5395 58.5 75.5395H68.25C73.6344 75.5395 78 72.1608 78 67.9935C77.9622 38.8204 108.488 15.1475 146.182 15.1183C178.665 15.0928 206.671 32.7911 213.135 57.429C213.708 59.607 215.491 61.4784 218.01 62.5452C220.527 63.6234 223.533 63.7752 226.21 62.9603C251.34 55.4831 279.545 65.1882 289.206 84.6391C298.867 104.089 286.327 125.918 261.195 133.395C255.628 135.051 249.715 135.903 243.75 135.908Z" fill="#A3E3FF"/>
<ellipse cx="143.812" cy="62.2548" rx="71.9062" ry="52.8223" fill="#A3E3FF"/>
<ellipse cx="84.0938" cy="105.173" rx="71.9062" ry="41.0315" fill="#A3E3FF"/>
<ellipse cx="227.906" cy="96.6833" rx="71.9062" ry="49.5209" fill="#A3E3FF"/>
<ellipse cx="156" cy="96.6833" rx="71.9063" ry="49.5209" fill="#A3E3FF"/>
<g clip-path="url(#clip1_24_128)">
<path d="M78.736 48.925H108.4V116.775H78.736V48.925Z" fill="#E6E9ED"/>
<path d="M104.153 48.925V116.775H108.398V48.925H104.153Z" fill="#CCD1D9"/>
<path d="M59.653 127.376V142.219H46.9312V23.4812H59.653V127.376Z" fill="#CCD1D9"/>
<path d="M110.52 123.136C112.873 123.136 114.761 125.044 114.761 127.377C114.761 129.73 112.894 131.596 110.541 131.617H76.5948C74.2623 131.596 72.3749 129.73 72.3749 127.377C72.3749 125.044 74.283 123.136 76.6155 123.136H110.52Z" fill="#E6E9ED"/>
<path d="M110.52 123.136H106.275C108.628 123.136 110.516 125.044 110.516 127.377C110.516 129.73 108.649 131.596 106.296 131.617H110.541C112.894 131.596 114.761 129.73 114.761 127.377C114.761 125.044 112.873 123.136 110.52 123.136Z" fill="#CCD1D9"/>
<path d="M110.52 131.617H110.541C110.541 140.989 102.95 148.58 93.5781 148.58C84.2064 148.58 76.5949 140.989 76.5949 131.617H110.52Z" fill="#CCD1D9"/>
<path d="M110.52 131.617H106.296C106.296 140.268 99.8231 147.388 91.4557 148.434C92.1535 148.521 92.8575 148.58 93.5781 148.58C102.95 148.58 110.541 140.989 110.541 131.617H110.52Z" fill="#AAB2BD"/>
<path d="M110.541 34.0828C112.894 34.1035 114.761 35.9701 114.761 38.3234C114.761 40.6559 112.873 42.564 110.52 42.564H76.6155C74.283 42.564 72.3749 40.6559 72.3749 38.3234C72.3749 35.9701 74.2643 34.1035 76.5948 34.0828H110.541Z" fill="#E6E9ED"/>
<path d="M110.541 34.0828H106.296C108.649 34.1035 110.516 35.9701 110.516 38.3234C110.516 40.6559 108.628 42.564 106.275 42.564H110.52C112.873 42.564 114.761 40.6559 114.761 38.3234C114.761 35.9701 112.894 34.1035 110.541 34.0828Z" fill="#CCD1D9"/>
<path d="M110.541 34.0828H76.5949C76.5949 24.7112 84.2064 17.1204 93.5781 17.1204C102.95 17.1204 110.541 24.7112 110.541 34.0828Z" fill="#CCD1D9"/>
<path d="M93.5781 17.1204C92.8575 17.1204 92.1535 17.1794 91.4557 17.2663C99.8231 18.3141 106.296 25.4318 106.296 34.0828H110.541C110.541 24.7112 102.95 17.1204 93.5781 17.1204Z" fill="#AAB2BD"/>
<path d="M108.4 78.6093V95.5717H108.378C108.378 102.611 102.693 108.294 95.656 108.294L91.4578 108.314C84.4188 108.314 78.736 114.019 78.736 121.036V104.053C78.736 97.0346 84.4188 91.3518 91.4578 91.3518L95.656 91.3311C102.693 91.3311 108.378 85.6276 108.378 78.6093H108.4Z" fill="#ED5565"/>
<path d="M108.4 44.6636V61.6261H108.378C108.378 68.6652 102.693 74.348 95.656 74.348L91.4578 74.3687C84.4188 74.3687 78.736 80.0722 78.736 87.0906V70.1073C78.736 63.089 84.4188 57.4062 91.4578 57.4062L95.656 57.3855C102.693 57.3855 108.378 51.6809 108.378 44.6636H108.4Z" fill="#5D9CEC"/>
<path d="M110.52 116.775V123.136H76.6156V116.775H110.52Z" fill="#656D78"/>
<path d="M108.399 116.775H106.275V123.136H110.52V116.775H108.399Z" fill="#545C66"/>
<path d="M110.52 42.5641V48.9251H76.6156V42.5641H110.52Z" fill="#656D78"/>
<path d="M106.275 42.5641V48.9251H110.52V42.5641H106.275Z" fill="#545C66"/>
<path d="M104.153 54.1161V71.0848C106.743 68.7584 108.378 65.3916 108.378 61.6262H108.398V48.925H107.631C106.915 50.9377 105.711 52.7143 104.153 54.1161Z" fill="#4A89DC"/>
<path d="M104.153 105.03C106.743 102.704 108.378 99.3371 108.378 95.5717H108.398V78.6093H108.378C108.378 82.3643 106.743 85.7291 104.153 88.0616V105.03Z" fill="#DA4453"/>
<path d="M110.543 36.2093C109.371 36.2093 108.422 35.262 108.422 34.089C108.422 25.9028 101.76 19.2406 93.5739 19.2406C85.3877 19.2406 78.7255 25.9028 78.7255 34.089C78.7255 35.262 77.7772 36.2093 76.6052 36.2093C75.4322 36.2093 74.4849 35.262 74.4849 34.089C74.4849 23.5641 83.0489 15 93.5739 15C104.099 15 112.663 23.5641 112.663 34.089C112.663 35.262 111.716 36.2093 110.543 36.2093Z" fill="black"/>
<path d="M93.5739 150.7C83.0489 150.7 74.4849 142.136 74.4849 131.611C74.4849 130.438 75.4322 129.491 76.6052 129.491C77.7772 129.491 78.7255 130.438 78.7255 131.611C78.7255 139.797 85.3877 146.459 93.5739 146.459C101.76 146.459 108.422 139.797 108.422 131.611C108.422 130.438 109.371 129.491 110.543 129.491C111.716 129.491 112.663 130.438 112.663 131.611C112.663 142.136 104.099 150.7 93.5739 150.7Z" fill="black"/>
<path d="M110.53 36.1969H76.6177C75.4457 36.1969 74.4974 35.2486 74.4974 34.0766C74.4974 32.9036 75.4457 31.9563 76.6177 31.9563H110.53C111.702 31.9563 112.651 32.9036 112.651 34.0766C112.651 35.2486 111.702 36.1969 110.53 36.1969Z" fill="black"/>
<path d="M76.6218 44.6782C73.1152 44.6782 70.2609 41.8239 70.2609 38.3173C70.2609 34.8096 73.1152 31.9563 76.6218 31.9563C77.7948 31.9563 78.7421 32.9036 78.7421 34.0766C78.7421 35.2486 77.7948 36.1969 76.6218 36.1969C75.4519 36.1969 74.5015 37.1463 74.5015 38.3173C74.5015 39.4872 75.4519 40.4376 76.6218 40.4376C77.7948 40.4376 78.7421 41.3849 78.7421 42.5579C78.7421 43.7299 77.7948 44.6782 76.6218 44.6782Z" fill="black"/>
<path d="M110.526 44.6782C109.353 44.6782 108.406 43.7299 108.406 42.5579C108.406 41.3849 109.353 40.4376 110.526 40.4376C111.696 40.4376 112.646 39.4872 112.646 38.3173C112.646 37.1463 111.696 36.1969 110.526 36.1969C109.353 36.1969 108.406 35.2486 108.406 34.0766C108.406 32.9036 109.353 31.9563 110.526 31.9563C114.033 31.9563 116.887 34.8096 116.887 38.3173C116.887 41.8239 114.033 44.6782 110.526 44.6782Z" fill="black"/>
<path d="M110.526 44.6781H76.6218C75.4498 44.6781 74.5015 43.7298 74.5015 42.5578C74.5015 41.3848 75.4498 40.4375 76.6218 40.4375H110.526C111.698 40.4375 112.646 41.3848 112.646 42.5578C112.646 43.7298 111.698 44.6781 110.526 44.6781Z" fill="black"/>
<path d="M110.526 133.744C109.353 133.744 108.406 132.796 108.406 131.623C108.406 130.451 109.353 129.503 110.526 129.503C111.696 129.503 112.646 128.554 112.646 127.383C112.646 126.213 111.696 125.263 110.526 125.263C109.353 125.263 108.406 124.315 108.406 123.142C108.406 121.97 109.353 121.022 110.526 121.022C114.033 121.022 116.887 123.876 116.887 127.383C116.887 130.89 114.033 133.744 110.526 133.744Z" fill="black"/>
<path d="M76.6218 133.744C73.1152 133.744 70.2609 130.89 70.2609 127.383C70.2609 123.876 73.1152 121.022 76.6218 121.022C77.7948 121.022 78.7421 121.97 78.7421 123.142C78.7421 124.315 77.7948 125.263 76.6218 125.263C75.4519 125.263 74.5015 126.213 74.5015 127.383C74.5015 128.554 75.4519 129.503 76.6218 129.503C77.7948 129.503 78.7421 130.451 78.7421 131.623C78.7421 132.796 77.7948 133.744 76.6218 133.744Z" fill="black"/>
<path d="M110.526 125.262H76.6218C75.4498 125.262 74.5015 124.315 74.5015 123.142C74.5015 121.97 75.4498 121.022 76.6218 121.022H110.526C111.698 121.022 112.646 121.97 112.646 123.142C112.646 124.315 111.698 125.262 110.526 125.262Z" fill="black"/>
<path d="M110.53 133.744H76.6177C75.4457 133.744 74.4974 132.796 74.4974 131.623C74.4974 130.452 75.4457 129.503 76.6177 129.503H110.53C111.702 129.503 112.651 130.452 112.651 131.623C112.651 132.796 111.702 133.744 110.53 133.744Z" fill="black"/>
<path d="M78.7441 118.895C77.5721 118.895 76.6237 117.948 76.6237 116.775V48.925C76.6237 47.752 77.5721 46.8047 78.7441 46.8047C79.9172 46.8047 80.8645 47.752 80.8645 48.925V116.775C80.8645 117.948 79.9172 118.895 78.7441 118.895Z" fill="black"/>
<path d="M108.404 118.895C107.231 118.895 106.283 117.948 106.283 116.775V48.925C106.283 47.752 107.231 46.8047 108.404 46.8047C109.576 46.8047 110.524 47.752 110.524 48.925V116.775C110.524 117.948 109.576 118.895 108.404 118.895Z" fill="black"/>
<path d="M76.6218 125.262C75.4498 125.262 74.5015 124.315 74.5015 123.142V116.781C74.5015 115.609 75.4498 114.661 76.6218 114.661C77.7948 114.661 78.7421 115.609 78.7421 116.781V123.142C78.7421 124.315 77.7948 125.262 76.6218 125.262Z" fill="black"/>
<path d="M110.526 118.902H76.6218C75.4498 118.902 74.5015 117.954 74.5015 116.781C74.5015 115.609 75.4498 114.661 76.6218 114.661H110.526C111.698 114.661 112.646 115.609 112.646 116.781C112.646 117.954 111.698 118.902 110.526 118.902Z" fill="black"/>
<path d="M110.526 125.262C109.353 125.262 108.406 124.315 108.406 123.142V116.781C108.406 115.609 109.353 114.661 110.526 114.661C111.698 114.661 112.646 115.609 112.646 116.781V123.142C112.646 124.315 111.698 125.262 110.526 125.262Z" fill="black"/>
<path d="M110.526 51.039C109.353 51.039 108.406 50.0907 108.406 48.9187V42.5578C108.406 41.3848 109.353 40.4375 110.526 40.4375C111.698 40.4375 112.646 41.3848 112.646 42.5578V48.9187C112.646 50.0907 111.698 51.039 110.526 51.039Z" fill="black"/>
<path d="M110.526 51.0391H76.6218C75.4498 51.0391 74.5015 50.0908 74.5015 48.9188C74.5015 47.7458 75.4498 46.7985 76.6218 46.7985H110.526C111.698 46.7985 112.646 47.7458 112.646 48.9188C112.646 50.0908 111.698 51.0391 110.526 51.0391Z" fill="black"/>
<path d="M76.6218 51.039C75.4498 51.039 74.5015 50.0907 74.5015 48.9187V42.5578C74.5015 41.3848 75.4498 40.4375 76.6218 40.4375C77.7948 40.4375 78.7421 41.3848 78.7421 42.5578V48.9187C78.7421 50.0907 77.7948 51.039 76.6218 51.039Z" fill="black"/>
<path d="M78.7379 89.2172C77.566 89.2172 76.6176 88.2699 76.6176 87.0969C76.6176 78.9168 83.2757 72.2587 91.4557 72.2587C92.6287 72.2587 93.576 73.207 93.576 74.379C93.576 75.552 92.6287 76.4993 91.4557 76.4993C85.6124 76.4993 80.8583 81.2535 80.8583 87.0969C80.8583 88.2699 79.911 89.2172 78.7379 89.2172Z" fill="black"/>
<path d="M78.7379 72.2629C77.566 72.2629 76.6176 71.3156 76.6176 70.1426C76.6176 61.9564 83.2798 55.2942 91.466 55.2942C92.639 55.2942 93.5863 56.2425 93.5863 57.4145C93.5863 58.5875 92.639 59.5348 91.466 59.5348C85.6165 59.5348 80.8582 64.2931 80.8582 70.1426C80.8582 71.3156 79.9109 72.2629 78.7379 72.2629Z" fill="black"/>
<path d="M95.6642 59.5162C94.4923 59.5162 93.5439 58.5678 93.5439 57.3959C93.5439 56.2229 94.4923 55.2756 95.6642 55.2756C100.147 55.2756 104.165 52.4409 105.66 48.2189C106.049 47.1162 107.259 46.5375 108.365 46.9299C109.47 47.3202 110.047 48.5326 109.654 49.6352C107.566 55.5447 101.94 59.5162 95.6642 59.5162Z" fill="black"/>
<path d="M95.6539 76.4808C94.4819 76.4808 93.5336 75.5324 93.5336 74.3605C93.5336 73.1875 94.4819 72.2402 95.6539 72.2402C101.504 72.2402 106.262 67.4819 106.262 61.6324C106.262 60.4594 107.21 59.5121 108.382 59.5121C109.555 59.5121 110.502 60.4594 110.502 61.6324C110.502 69.8186 103.843 76.4808 95.6539 76.4808Z" fill="black"/>
<path d="M95.6642 59.5348H91.466C90.2941 59.5348 89.3457 58.5875 89.3457 57.4145C89.3457 56.2425 90.2941 55.2942 91.466 55.2942H95.6642C96.8372 55.2942 97.7845 56.2425 97.7845 57.4145C97.7845 58.5875 96.8372 59.5348 95.6642 59.5348Z" fill="black"/>
<path d="M95.6642 76.5056H91.466C90.2941 76.5056 89.3457 75.5583 89.3457 74.3852C89.3457 73.2132 90.2941 72.2649 91.466 72.2649H95.6642C96.8372 72.2649 97.7845 73.2132 97.7845 74.3852C97.7845 75.5583 96.8372 76.5056 95.6642 76.5056Z" fill="black"/>
<path d="M78.7379 106.192C77.566 106.192 76.6176 105.245 76.6176 104.072C76.6176 95.8918 83.2757 89.2347 91.4557 89.2347C92.6287 89.2347 93.576 90.182 93.576 91.3551C93.576 92.527 92.6287 93.4754 91.4557 93.4754C85.6124 93.4754 80.8583 98.2285 80.8583 104.072C80.8583 105.245 79.911 106.192 78.7379 106.192Z" fill="black"/>
<path d="M95.6539 93.4556C94.4819 93.4556 93.5336 92.5083 93.5336 91.3353C93.5336 90.1634 94.4819 89.215 95.6539 89.215C101.504 89.215 106.262 84.4568 106.262 78.6074C106.262 77.4344 107.21 76.4871 108.382 76.4871C109.555 76.4871 110.502 77.4344 110.502 78.6074C110.502 86.7935 103.843 93.4556 95.6539 93.4556Z" fill="black"/>
<path d="M95.6642 93.4816H91.466C90.2941 93.4816 89.3457 92.5332 89.3457 91.3613C89.3457 90.1883 90.2941 89.241 91.466 89.241H95.6642C96.8372 89.241 97.7845 90.1883 97.7845 91.3613C97.7845 92.5332 96.8372 93.4816 95.6642 93.4816Z" fill="black"/>
<path d="M79.4719 118.893C79.2359 118.893 78.9947 118.853 78.7597 118.77C77.657 118.376 77.0824 117.163 77.4748 116.061C79.5734 110.168 85.1941 106.21 91.4578 106.21C92.6308 106.21 93.5781 107.157 93.5781 108.33C93.5781 109.502 92.6308 110.45 91.4578 110.45C86.9842 110.45 82.9682 113.277 81.4711 117.485C81.1574 118.353 80.3437 118.893 79.4719 118.893Z" fill="black"/>
<path d="M95.6539 110.431C94.4819 110.431 93.5336 109.483 93.5336 108.31C93.5336 107.138 94.4819 106.19 95.6539 106.19C101.504 106.19 106.262 101.433 106.262 95.5822C106.262 94.4103 107.21 93.4619 108.382 93.4619C109.555 93.4619 110.502 94.4103 110.502 95.5822C110.502 103.769 103.843 110.431 95.6539 110.431Z" fill="black"/>
<path d="M95.6642 110.456H91.466C90.2941 110.456 89.3457 109.509 89.3457 108.336C89.3457 107.163 90.2941 106.216 91.466 106.216H95.6642C96.8372 106.216 97.7845 107.163 97.7845 108.336C97.7845 109.509 96.8372 110.456 95.6642 110.456Z" fill="black"/>
<path d="M72.3812 40.4375H59.6469C58.4738 40.4375 57.5265 39.4892 57.5265 38.3172C57.5265 37.1442 58.4738 36.1969 59.6469 36.1969H72.3812C73.5543 36.1969 74.5016 37.1442 74.5016 38.3172C74.5016 39.4892 73.5543 40.4375 72.3812 40.4375Z" fill="black"/>
<path d="M72.3812 129.503H59.6448C58.4718 129.503 57.5245 128.556 57.5245 127.383C57.5245 126.211 58.4718 125.262 59.6448 125.262H72.3812C73.5542 125.262 74.5015 126.211 74.5015 127.383C74.5015 128.556 73.5542 129.503 72.3812 129.503Z" fill="black"/>
<path d="M59.6469 144.347C58.4738 144.347 57.5265 143.4 57.5265 142.227V23.473C57.5265 22.3 58.4738 21.3527 59.6469 21.3527C60.8199 21.3527 61.7672 22.3 61.7672 23.473V142.227C61.7672 143.4 60.8199 144.347 59.6469 144.347Z" fill="black"/>
<path d="M59.6469 25.5933H46.925C45.752 25.5933 44.8046 24.6449 44.8046 23.473C44.8046 22.3 45.752 21.3527 46.925 21.3527H59.6469C60.8199 21.3527 61.7672 22.3 61.7672 23.473C61.7672 24.6449 60.8199 25.5933 59.6469 25.5933Z" fill="black"/>
<path d="M59.6469 144.339H46.925C45.752 144.339 44.8046 143.392 44.8046 142.219C44.8046 141.046 45.752 140.099 46.925 140.099H59.6469C60.8199 140.099 61.7672 141.046 61.7672 142.219C61.7672 143.392 60.8199 144.339 59.6469 144.339Z" fill="black"/>
<path d="M46.925 150.692C45.752 150.692 44.8046 149.744 44.8046 148.572V17.1203C44.8046 15.9473 45.752 15 46.925 15C48.098 15 49.0453 15.9473 49.0453 17.1203V148.572C49.0453 149.744 48.098 150.692 46.925 150.692Z" fill="black"/>
</g>
<g clip-path="url(#clip2_24_128)">
<path d="M239.895 116.596L206.933 108.819V108.843H184.321V108.819L151.359 116.596C144.119 118.304 139.005 124.765 139.005 132.204V147.763H252.249V132.204C252.249 124.765 247.135 118.304 239.895 116.596Z" fill="white"/>
<path d="M225.01 113.084V135.753H166.244V113.084L151.51 116.56V147.763H239.71V116.552L225.01 113.084Z" fill="#79787D"/>
<path d="M234.365 115.291V147.763H239.71V116.552L234.365 115.291Z" fill="#58565B"/>
<path d="M191.585 115.277L191.601 114.371C191.601 112.895 192.798 111.698 194.274 111.698H196.947C198.423 111.698 199.62 112.895 199.62 114.371L199.636 115.277L206.933 112.84V96.0238C204.462 97.1691 201.717 97.8137 198.827 97.8137H192.381C189.509 97.8137 186.78 97.1771 184.322 96.0452V112.851L191.585 115.277Z" fill="#FFAA81"/>
<path d="M226.075 39.4533C226.075 30.497 217.447 23.2366 206.803 23.2366C199.806 23.2366 193.68 26.3749 190.304 31.0698H186.385C178.93 31.0698 172.969 37.1203 172.969 44.5839V60.1477H218.242V52.5037C222.993 49.5501 226.075 44.8055 226.075 39.4533Z" fill="#D09596"/>
<path d="M206.803 23.2366C205.892 23.2366 204.995 23.2911 204.118 23.394C213.502 24.4847 220.73 31.2569 220.73 39.4534C220.73 44.8052 217.647 49.5501 212.896 52.5035V60.1475H218.242V52.5035C222.993 49.5499 226.075 44.8052 226.075 39.4534C226.075 30.497 217.446 23.2366 206.803 23.2366Z" fill="#BB696A"/>
<path d="M194.274 50.4925C187.766 44.2284 181.89 47.5525 181.89 47.5525C177.168 49.3344 172.969 57.4415 172.969 57.4415V78.4021C172.969 89.0784 181.704 97.8136 192.38 97.8136H198.827C209.503 97.8136 218.238 89.0784 218.238 78.4021V52.5037C218.238 52.5037 204.305 60.1477 194.274 50.4925Z" fill="#FFCEB7"/>
<path d="M212.893 54.5238V78.4022C212.893 89.0784 204.158 97.8137 193.481 97.8137H198.827C209.503 97.8137 218.238 89.0787 218.238 78.4022V52.5038C218.238 52.5038 216.098 53.6774 212.893 54.5238Z" fill="#FFAA81"/>
<path d="M172.969 71.8154H169.951C167.188 71.8154 164.948 69.5754 164.948 66.8123V65.1507C164.948 62.3876 167.188 60.1476 169.951 60.1476H172.969V71.8154Z" fill="#FFAA81"/>
<path d="M218.373 60.1477H221.391C224.154 60.1477 226.394 62.3877 226.394 65.1508V66.8125C226.394 69.5755 224.154 71.8156 221.391 71.8156H218.373V60.1477Z" fill="#FFAA81"/>
<path d="M207.38 84.9702C204.913 85.3222 202.398 85.0942 200.034 84.3047L195.627 82.8325L191.22 84.3047C188.856 85.0942 186.341 85.3219 183.874 84.9702L173.425 83.4793C176.615 100.943 195.604 105 195.604 105C195.604 105 214.587 100.945 217.781 83.4863L207.38 84.9702Z" fill="#D09596"/>
<path d="M212.279 84.271C209.527 97.0755 198.172 102.404 192.931 104.214C194.564 104.777 195.604 105 195.604 105C195.604 105 214.587 100.945 217.781 83.4863L212.279 84.271Z" fill="#BB696A"/>
<path d="M202.284 73.7621C200.053 73.7621 198.447 74.423 197.289 75.3769C196.329 76.1675 194.925 76.1675 193.965 75.3769C192.808 74.423 191.201 73.7621 188.97 73.7621C180.952 73.7621 180.885 82.8328 168.892 82.8328L183.874 84.9704C186.341 85.3224 188.856 85.0945 191.22 84.3052L195.627 82.8331L200.034 84.3052C202.398 85.0947 204.913 85.3224 207.38 84.9704L222.363 82.8328C210.369 82.8325 210.302 73.7621 202.284 73.7621Z" fill="#BB696A"/>
<path d="M175.582 113.643V124.024C175.582 125.849 177.37 127.137 179.101 126.559L191.585 122.389V115.278L179.101 111.108C177.37 110.529 175.582 111.818 175.582 113.643Z" fill="#58565B"/>
<path d="M212.119 111.107L199.636 115.277V122.389L212.119 126.559C213.85 127.137 215.639 125.848 215.639 124.023V113.642C215.639 111.817 213.851 110.529 212.119 111.107Z" fill="#58565B"/>
<path d="M196.947 111.698H194.274C192.798 111.698 191.601 112.895 191.601 114.371V125.062C191.601 126.538 192.798 127.734 194.274 127.734H196.947C198.423 127.734 199.619 126.538 199.619 125.062V114.371C199.619 112.895 198.423 111.698 196.947 111.698Z" fill="#58565B"/>
<path d="M251.432 74.3669L256.028 75.4015C258.908 76.0499 261.768 74.2408 262.417 71.3606L266.078 55.0952C267.298 49.6776 263.895 44.2971 258.477 43.0775L258.476 43.0773L251.432 74.3669Z" fill="#58565B"/>
<path d="M251.196 74.3669L246.6 75.4015C243.72 76.0499 240.86 74.2408 240.211 71.3606L236.549 55.0952C235.33 49.6776 238.733 44.2971 244.15 43.0775L244.152 43.0773L251.196 74.3669Z" fill="#79787D"/>
<path d="M241.715 115.024V114.966L240.36 114.646C240.358 114.646 240.357 114.645 240.356 114.645L208.937 107.233V100.866C214.372 96.8101 217.97 91.4839 219.453 85.2727L222.645 84.8173L222.362 80.8282C221.552 80.8282 220.807 80.7825 220.117 80.7C220.199 79.9385 220.243 79.1717 220.243 78.4025V73.8198H221.391C225.255 73.8198 228.398 70.6762 228.398 66.8122V65.1506C228.398 61.2866 225.255 58.1429 221.391 58.1429H220.243V53.583C225.17 50.1403 228.079 44.9322 228.079 39.4531C228.079 35.9323 226.908 32.5166 224.692 29.5755L221.49 31.9879C223.178 34.2282 224.071 36.8098 224.071 39.4531C224.071 43.9246 221.58 48.0435 217.238 50.7649C216.859 50.9632 213.705 52.5652 209.605 53.153C204.016 53.9542 199.326 52.573 195.664 49.0482C188.698 42.3423 182.187 45.1572 181.064 45.7228C178.751 46.6371 176.645 48.678 174.973 50.7483V44.5839C174.973 38.2375 180.092 33.0744 186.385 33.0744H186.767L184.786 36.3824L188.225 38.442L191.972 32.1846C195.086 27.9005 200.761 25.2414 206.803 25.2414C211.309 25.2414 215.576 26.6673 218.818 29.2561L221.32 26.1237C217.371 22.9693 212.215 21.2321 206.803 21.2321C199.746 21.2321 193.291 24.1421 189.313 29.0653H186.385C177.882 29.0653 170.964 36.0269 170.964 44.5839V56.9533V57.4416V58.1432H169.951C166.087 58.1432 162.943 61.2869 162.943 65.1508V66.8125C162.943 70.6764 166.087 73.8201 169.951 73.8201H170.964V78.4025C170.964 79.1736 171.008 79.9422 171.09 80.7056C170.413 80.7847 169.684 80.8282 168.892 80.8282L168.609 84.8173L171.753 85.2658C173.238 91.4975 176.853 96.839 182.317 100.901V107.252L175.922 108.742L150.899 114.645C150.898 114.645 150.897 114.646 150.896 114.646L149.506 114.974V115.034C142.075 117.416 137 124.282 137 132.204V149.767H254.254V140.586H250.245V145.758H241.715V119.292C246.836 121.459 250.245 126.477 250.245 132.204V136.755H254.254V132.204C254.254 124.27 249.164 117.396 241.715 115.024ZM220.378 62.1523H221.391C223.044 62.1523 224.389 63.4975 224.389 65.1508V66.8125C224.389 68.4658 223.044 69.811 221.391 69.811H220.378V62.1523ZM168.248 114.671L173.584 113.412C173.58 113.488 173.577 113.565 173.577 113.642V124.024C173.577 125.523 174.303 126.942 175.52 127.819C176.325 128.398 177.287 128.7 178.258 128.7C178.755 128.7 179.254 128.621 179.736 128.46L189.602 125.165C189.652 127.467 191.372 129.36 193.598 129.684V133.748H168.248V114.671H168.248ZM195.185 106.96L195.603 107.049L196.022 106.96C196.209 106.92 200.215 106.043 204.928 103.442V106.311V108.843V111.396L201.279 112.615C200.583 110.904 198.905 109.694 196.947 109.694H194.274C192.316 109.694 190.638 110.904 189.942 112.615L186.326 111.407V103.468C191.018 106.048 194.999 106.92 195.185 106.96ZM212.755 113.008C213.037 112.914 213.253 113.025 213.357 113.1C213.461 113.175 213.635 113.345 213.635 113.642V124.024C213.635 124.321 213.461 124.491 213.357 124.566C213.253 124.64 213.037 124.752 212.755 124.657L201.641 120.945V116.721L212.755 113.008ZM196.947 125.73H194.274C193.906 125.73 193.606 125.43 193.606 125.062V114.371C193.606 114.002 193.906 113.703 194.274 113.703H196.947C197.315 113.703 197.615 114.002 197.615 114.371V125.062C197.615 125.43 197.315 125.73 196.947 125.73ZM189.58 116.721V120.945L178.466 124.657C178.183 124.752 177.967 124.641 177.864 124.566C177.76 124.491 177.586 124.321 177.586 124.024V113.642C177.586 113.345 177.76 113.175 177.864 113.1C177.939 113.046 178.074 112.972 178.25 112.972C178.316 112.972 178.389 112.983 178.466 113.009L189.58 116.721ZM197.607 129.687C199.84 129.369 201.568 127.472 201.619 125.165L211.485 128.46C211.967 128.621 212.466 128.7 212.963 128.7C213.933 128.7 214.895 128.399 215.7 127.819C216.917 126.942 217.644 125.524 217.644 124.024V113.642C217.644 113.563 217.641 113.484 217.637 113.405L223.006 114.671V133.748H197.607V129.687ZM207.097 82.9857C205.359 83.2334 203.573 83.1431 201.864 82.7376C201.461 82.642 201.062 82.5345 200.669 82.4033L195.627 80.7192L190.585 82.4033C189.849 82.6489 189.092 82.8298 188.326 82.9504C188.188 82.972 188.05 82.9891 187.911 83.0065C186.665 83.1647 185.399 83.1629 184.157 82.9857L178.674 82.2034C180.2 81.2275 181.415 80.1109 182.523 79.0934C184.625 77.1621 186.144 75.7666 188.97 75.7666C190.528 75.7666 191.745 76.1454 192.69 76.9239C194.392 78.3266 196.862 78.3263 198.564 76.9239C199.509 76.1451 200.726 75.7666 202.284 75.7666C205.109 75.7666 206.628 77.1621 208.73 79.0934C209.838 80.1109 211.054 81.2275 212.58 82.2034L208.194 82.829L207.097 82.9857ZM169.951 69.8107C168.297 69.8107 166.952 68.4655 166.952 66.8122V65.1506C166.952 63.4972 168.297 62.152 169.951 62.152H170.964V69.8105H169.951V69.8107ZM174.973 78.4022V73.8198V58.1432V57.9446C176.253 55.621 179.528 50.5866 182.598 49.428L182.723 49.3839L182.858 49.3077C183.049 49.2051 187.604 46.8544 192.884 51.9363C197.449 56.3314 203.476 58.1173 210.312 57.1011C212.646 56.7542 214.693 56.1368 216.233 55.5656V78.4017C216.233 78.8103 216.218 79.2179 216.19 79.6242C214.271 78.7363 212.878 77.4587 211.443 76.1403C209.097 73.9853 206.671 71.757 202.284 71.757C199.792 71.757 197.683 72.4543 196.014 73.8294C195.793 74.0112 195.461 74.0112 195.24 73.8294C193.571 72.4543 191.461 71.757 188.97 71.757C184.582 71.757 182.156 73.9853 179.811 76.1403C178.364 77.4692 176.961 78.7569 175.018 79.6453C174.989 79.2326 174.973 78.8178 174.973 78.4022ZM176.073 85.8821L183.591 86.9547C185.922 87.2874 188.321 87.1527 190.603 86.5719C191.024 86.4648 191.442 86.3439 191.855 86.2063L195.627 84.9461L199.399 86.2063C199.404 86.2079 199.409 86.209 199.413 86.2106C201.476 86.8983 203.676 87.2099 205.848 87.118C206.985 87.0699 208.103 86.8921 209.228 86.7318C210.551 86.5431 211.874 86.3541 213.198 86.1654C213.842 86.0735 214.487 85.9815 215.131 85.8896C213.463 91.2479 209.911 95.6563 204.544 99.0202C200.595 101.496 196.834 102.613 195.604 102.936C194.37 102.612 190.61 101.494 186.661 99.0188C181.292 95.6525 177.741 91.2431 176.073 85.8821ZM153.515 145.759V132.746H149.506V145.759H141.009V132.204C141.009 126.49 144.403 121.481 149.506 119.306V128.826H153.515V118.147L160.028 116.61L164.239 115.617V137.757H227.015V115.617L237.706 118.139V145.759H153.515V145.759Z" fill="black"/>
<path d="M183.64 63.7605H187.649V67.7696H183.64V63.7605Z" fill="black"/>
<path d="M202.3 63.7605H206.309V67.7696H202.3V63.7605Z" fill="black"/>
<path d="M272 104.981L268.08 101.169C269.716 99.3051 270.472 96.7126 269.887 94.1136C268.916 89.8004 264.617 87.0809 260.304 88.0522C258.933 88.3606 257.724 89.0063 256.743 89.8806L253.835 76.9625L255.588 77.357C256.129 77.4788 256.67 77.5371 257.202 77.5371C260.563 77.5371 263.604 75.2132 264.372 71.8004L268.034 55.5349C268.741 52.3926 268.183 49.1626 266.461 46.4402C264.752 43.7386 262.101 41.8575 258.989 41.138L256.992 40.5391L251.314 65.764L246.108 42.6366L245.634 40.5393L243.639 41.1378C240.527 41.8575 237.876 43.7383 236.167 46.4399C234.445 49.1624 233.887 52.3923 234.594 55.5347L238.256 71.8001C239.024 75.2129 242.065 77.5366 245.426 77.5366C245.958 77.5366 246.5 77.478 247.041 77.3564L248.793 76.9619L245.885 89.88C244.904 89.0058 243.695 88.36 242.324 88.0516C238.013 87.0806 233.712 89.7998 232.741 94.1131C232.156 96.7121 232.912 99.3046 234.548 101.168L230.628 104.98L233.423 107.854L237.949 103.453C238.226 103.548 238.51 103.631 238.802 103.696C239.393 103.83 239.983 103.893 240.564 103.893C244.23 103.893 247.547 101.358 248.386 97.6349C248.494 97.1523 248.554 96.6698 248.574 96.1922L251.314 84.0182L254.055 96.1922C254.074 96.6698 254.134 97.1523 254.243 97.6349C255.081 101.358 258.398 103.893 262.064 103.893C262.645 103.893 263.236 103.829 263.826 103.696C264.118 103.631 264.403 103.548 264.679 103.453L269.205 107.854L272 104.981ZM259.936 45.7167C261.209 46.3648 262.289 47.3449 263.073 48.5837C264.222 50.4009 264.595 52.557 264.123 54.6548L260.461 70.92C260.057 72.7174 258.265 73.8501 256.468 73.4457L253.828 72.8513L259.936 45.7167ZM246.16 73.446C244.363 73.8501 242.571 72.7176 242.167 70.9202L238.505 54.6548C238.033 52.557 238.406 50.4009 239.555 48.5837C240.339 47.3452 241.419 46.3651 242.691 45.7167L248.8 72.8515L246.16 73.446ZM244.474 96.7551C244.239 97.7999 243.611 98.6904 242.706 99.2629C241.801 99.8354 240.728 100.021 239.682 99.786C238.638 99.5508 237.747 98.9229 237.175 98.0177C236.602 97.1127 236.417 96.0391 236.652 94.994C237.137 92.8374 239.286 91.4775 241.443 91.9632C242.488 92.1984 243.379 92.8262 243.951 93.7314C244.524 94.6367 244.71 95.7103 244.474 96.7551ZM262.945 99.786C261.9 100.021 260.827 99.8354 259.922 99.2629C259.017 98.6904 258.389 97.7999 258.153 96.7551C257.918 95.7103 258.104 94.6364 258.676 93.7314C259.249 92.8264 260.14 92.1984 261.184 91.9632C261.48 91.8966 261.774 91.8648 262.065 91.8648C263.898 91.8648 265.557 93.1325 265.976 94.9938C266.211 96.0385 266.025 97.1124 265.453 98.0174C264.88 98.9227 263.99 99.5508 262.945 99.786Z" fill="black"/>
</g>
</g>
<defs>
<clipPath id="clip0_24_128">
<rect width="312" height="153" fill="white"/>
</clipPath>
<clipPath id="clip1_24_128">
<rect width="135.7" height="135.7" fill="white" transform="translate(13 15)"/>
</clipPath>
<clipPath id="clip2_24_128">
<rect width="135" height="135" fill="white" transform="translate(137 18)"/>
</clipPath>
</defs>
</svg>
